<?xml version="1.0" encoding="utf-8"?>
<!-- Generator: Adobe Illustrator 24.0.0, SVG Export Plug-In . SVG Version: 6.00 Build 0)  -->
<svg version="1.1" id="Capa_1" xmlns="http://www.w3.org/2000/svg" xmlns:xlink="http://www.w3.org/1999/xlink" x="0px" y="0px"
	 viewBox="0 0 512 512" style="enable-background:new 0 0 512 512;" xml:space="preserve">
<style type="text/css">
	.st0{fill:#BA9769;}
	.st1{fill:#99714E;}
	.st2{fill:#E0D9D9;}
	.st3{fill:#CEC4C4;}
	.st4{fill:#9E8E8E;}
	.st5{fill:#897B7B;}
	.st6{fill:#CECECE;}
</style>
<path class="st0" d="M235.5,382.8l-82.5-28.5l-18.2,1.9L95.4,469.2c-1.3,3.6,1.7,7.3,5.5,6.9l55.2-5.8c1.5-0.2,3.1,0.4,4.2,1.5
	l39.7,38.8c2.7,2.7,7.3,1.6,8.6-2L248,394.7L235.5,382.8z"/>
<path class="st1" d="M248,394.7l8-23l-113.3-38.5l-8,22.9C166.9,379.1,205.9,393.1,248,394.7z"/>
<path class="st0" d="M276.5,382.8l82.5-28.5l18.2,1.9l39.4,113.1c1.3,3.6-1.7,7.3-5.5,6.9l-55.2-5.8c-1.5-0.2-3.1,0.4-4.2,1.5
	l-39.7,38.8c-2.7,2.7-7.3,1.6-8.6-2L264,394.7L276.5,382.8z"/>
<path class="st1" d="M264,394.7l-8-23l113.3-38.5l8,22.9C345.1,379.1,306.1,393.1,264,394.7L264,394.7z"/>
<path class="st2" d="M256,359.4c-185.6,0-185.8-179.9-185.6-183C75.3,78.2,156.5,0,256,0c99.4,0,180.6,78.1,185.6,176.3
	C441.8,179.5,441.6,359.4,256,359.4L256,359.4z"/>
<path class="st3" d="M256,353c-99.5,0-180.7-78.2-185.6-176.5c-0.2,3.1-0.2,6.2-0.2,9.4c0,102.6,83.2,185.9,185.9,185.9
	s185.9-83.2,185.9-185.9c0-3.1-0.1-6.3-0.2-9.4C436.7,274.8,355.5,353,256,353L256,353z"/>
<path class="st4" d="M256,320.6c-146.4,0-146.3-141-146.1-144.1c4.8-76.5,68.4-137,146.1-137s141.3,60.5,146.1,137
	C402.3,179.6,402.1,320.6,256,320.6z"/>
<path class="st5" d="M256,313.5c-77.7,0-141.3-60.6-146.1-137c-0.2,3.1-0.3,6.2-0.3,9.4c0,80.9,65.6,146.4,146.4,146.4
	s146.4-65.6,146.4-146.4c0-3.1-0.1-6.3-0.3-9.4C397.3,253,333.7,313.5,256,313.5L256,313.5z"/>
<g>
	<path class="st2" d="M262.8,262.5v-23.6h-58.1c-7.3,0-12.8-1.8-16.5-5.5c-3.7-3.6-5.5-8.6-5.5-14.9c0-1.6,0.3-3.2,0.8-4.9
		c0.5-1.7,1.3-3.4,2.4-5.2c1.1-1.8,2.2-3.6,3.4-5.3c1.2-1.7,2.6-3.8,4.3-6.2l61.4-90.1c4-5.9,7.3-10.2,9.9-12.9c2.6-2.7,5.7-4,9.3-4
		c11.7,0,17.6,7.4,17.6,22.1v98.4h5c5.9,0,10.7,0.9,14.3,2.7c3.6,1.8,5.4,5.7,5.4,11.7c0,4.9-1.5,8.5-4.4,10.7
		c-2.9,2.2-7.3,3.4-13.2,3.4h-7.1v23.6c0,6.5-1.3,11.4-3.9,14.6c-2.6,3.2-6.1,4.8-10.5,4.8c-4.3,0-7.8-1.6-10.5-4.9
		C264.2,273.7,262.8,268.9,262.8,262.5z M213,210.4h49.8v-73.9L213,210.4z"/>
</g>
<path class="st6" d="M277.3,267.1c-8,0-14.5-6.5-14.5-14.5v14.7c0,8,6.5,14.5,14.5,14.5c8,0,14.5-6.5,14.5-14.5v-14.7
	C291.8,260.6,285.3,267.1,277.3,267.1z"/>
</svg>
